<svg width="24" height="24" viewBox="0 0 24 24" fill="none" xmlns="http://www.w3.org/2000/svg">
<path d="M11.6001 10.4004C13.8101 10.4004 15.6001 8.61039 15.6001 6.40039C15.6001 4.19039 13.8101 2.40039 11.6001 2.40039C9.3901 2.40039 7.6001 4.19039 7.6001 6.40039C7.6001 8.61039 9.3901 10.4004 11.6001 10.4004ZM11.6001 12.4004C8.9301 12.4004 3.6001 13.7404 3.6001 16.4004V18.4004H19.6001V16.4004C19.6001 13.7404 14.2701 12.4004 11.6001 12.4004Z" fill="#C2CFE0"/>
<path d="M21.5936 17.323L21.5936 17.323L21.6004 17.3175C21.9663 17.0248 22.042 16.5245 21.841 16.1449L21.8346 16.1327L21.8276 16.1207L21.0891 14.8422C20.8412 14.4044 20.3459 14.2948 19.9736 14.4189L19.9521 14.426L19.9311 14.4345L19.3771 14.6572C19.3688 14.6523 19.3604 14.6474 19.352 14.6426L19.2686 14.0533L19.2686 14.0533L19.2677 14.0471C19.1966 13.573 18.79 13.251 18.3408 13.251H16.8596C16.3872 13.251 16.0051 13.596 15.9374 14.0471L15.9374 14.0471L15.9365 14.0533L15.853 14.6434C15.8449 14.6481 15.8368 14.6528 15.8287 14.6575L15.274 14.4345L15.2741 14.4345L15.2661 14.4314C14.8402 14.2657 14.3483 14.4325 14.116 14.842L13.3775 16.1207L13.3774 16.1206L13.3713 16.1316C13.1562 16.5188 13.2293 17.0303 13.6153 17.3259L14.0731 17.6835C14.0731 17.6903 14.073 17.6971 14.073 17.7039C14.073 17.7095 14.073 17.7151 14.0731 17.7207L13.6069 18.0849L13.6069 18.0848L13.6 18.0903C13.2342 18.383 13.1585 18.8834 13.3594 19.2629L13.3659 19.2751L13.3728 19.2871L14.1113 20.5656C14.3593 21.0035 14.8545 21.1131 15.2268 20.989L15.2484 20.9818L15.2694 20.9733L15.8234 20.7506C15.8317 20.7555 15.8401 20.7604 15.8485 20.7652L15.9319 21.3546L15.9349 21.3757L15.9391 21.3966C16.0221 21.8115 16.3816 22.1568 16.8596 22.1568H18.3408C18.7759 22.1568 19.2048 21.8442 19.2654 21.3446L19.3474 20.7644C19.3556 20.7598 19.3637 20.7551 19.3717 20.7503L19.9264 20.9733L19.9264 20.9734L19.9343 20.9765C20.3603 21.1421 20.8522 20.9753 21.0844 20.5658L21.823 19.2871L21.8231 19.2872L21.8292 19.2762C22.0439 18.8898 21.9714 18.3795 21.5875 18.0837L21.1274 17.72C21.1274 17.7147 21.1274 17.7093 21.1274 17.7039C21.1274 17.6983 21.1274 17.6927 21.1274 17.6871L21.5936 17.323ZM17.6002 18.3425C17.2507 18.3425 16.9616 18.0534 16.9616 17.7039C16.9616 17.3544 17.2507 17.0653 17.6002 17.0653C17.9498 17.0653 18.2388 17.3544 18.2388 17.7039C18.2388 18.0534 17.9498 18.3425 17.6002 18.3425Z" fill="#C2CFE0" stroke="white" stroke-width="1.5"/>
<circle cx="17.6002" cy="17.601" r="0.6" fill="white"/>
</svg>
